<svg xmlns="http://www.w3.org/2000/svg" width="1199" height="1199" viewBox="0 0 1199 1199" fill="none">
<path d="M874.699 57.3349L616.96 358.503C659.215 396.93 685.745 452.381 685.745 514.002C685.745 630.046 591.722 724.115 475.735 724.115C425.807 724.115 379.991 706.659 343.949 677.534L87.7411 976.934C341.56 1194.36 723.483 1164.74 940.806 910.794C1158.13 656.851 1128.52 274.741 874.699 57.311V57.3349Z" fill="#FB5DA5"/>
<path fill-rule="evenodd" clip-rule="evenodd" d="M923.866 0C1209.58 244.744 1242.91 674.894 998.281 960.75C753.656 1246.6 323.717 1279.95 38 1035.2L137.482 918.953C359.021 1108.73 692.402 1082.87 882.09 861.219C1071.77 639.572 1045.93 306.028 824.384 116.247L923.866 0Z" fill="#07D2C3"/>
</svg>